<?xml version="1.0" encoding="UTF-8"?><svg id="a" xmlns="http://www.w3.org/2000/svg" viewBox="0 0 48.48 40.87"><path d="M29.61,40.87C22.88,25.61,13.39,12.88,0,3.29,12.85-1.05,32.45,23.43,29.61,40.87Z" fill="#fff" stroke-width="0"/><path d="M47.67,1.98c-7.83,5.6-14.07,11.55-18.53,19.11-.29.49-.89,1.51-1.57,1.31-.76-.23,2.08-10.27,4.86-13.82,3.65-4.67,8.39-6.85,15.24-6.6Z" fill="#fff" stroke-width="0"/><path d="M25.78.61c3,.05,5.17,2.28,5.18,5.33.01,3.07-2.46,5.52-5.44,5.42-2.92-.11-5.24-2.49-5.25-5.4-.01-3.02,2.44-5.4,5.51-5.35Z" fill="#fff" stroke-width="0"/></svg>